<?xml version="1.0" standalone="no"?><!DOCTYPE svg PUBLIC "-//W3C//DTD SVG 1.1//EN" "http://www.w3.org/Graphics/SVG/1.1/DTD/svg11.dtd"><svg t="1618654126269" class="icon" viewBox="0 0 1178 1024" version="1.1" xmlns="http://www.w3.org/2000/svg" p-id="4258" xmlns:xlink="http://www.w3.org/1999/xlink" width="512" height="512"><defs><style type="text/css"></style></defs><path d="M900.818803 1024h-785.329213a115.628178 115.628178 0 0 1-115.48959-115.48959v-785.329213a115.628178 115.628178 0 0 1 115.48959-115.48959h707.512327a249.6192 249.6192 0 0 0 193.306476 449.139016v451.656689a115.628178 115.628178 0 0 1-115.48959 115.512688z" fill="#387FFD" p-id="4259"></path><path d="M115.48959 1024a115.48959 115.48959 0 0 1-115.327905-109.253152v-128.863285l127.177137-94.447387a140.042677 140.042677 0 0 1 91.213678-32.775945 150.136467 150.136467 0 0 1 93.269393 32.775945l50.81542 43.146911a50.81542 50.81542 0 0 0 61.509756 0l212.131279-181.180069a141.705727 141.705727 0 0 1 93.477274-32.683554 145.840254 145.840254 0 0 1 93.315589 32.775946l193.237182 148.011458V908.51041a115.48959 115.48959 0 0 1-115.48959 115.48959z" fill="#9ABDFC" p-id="4260"></path><path d="M1138.334694 172.610741h-132.743735v-132.766832a39.820811 39.820811 0 1 0-79.664719 0v132.766832h-132.766833a39.820811 39.820811 0 1 0 0 79.66472h132.766833v132.766833a39.820811 39.820811 0 1 0 79.664719 0v-132.766833h132.766833a39.820811 39.820811 0 1 0 0-79.66472z" fill="#387FFD" p-id="4261"></path><path d="M311.821893 319.5135m-127.038549 0a127.038549 127.038549 0 1 0 254.077099 0 127.038549 127.038549 0 1 0-254.077099 0Z" fill="#FFFFFF" p-id="4262"></path></svg>